<svg width="43pt" height="7pt" viewBox="0 0 43 7" xmlns="http://www.w3.org/2000/svg"><g id="fontsvg1677607157415" stroke-linecap="round" fill-rule="evenodd" fill="#ffffff"><path d="M 37.813 0.049 L 39.165 0.19 L 40.728 2.964 L 41.011 3.75 L 41.011 3.32 L 40.796 1.045 L 40.869 0.83 Q 40.885 0.355 41.288 0.186 A 1.098 1.098 0 0 1 41.509 0.122 L 42.29 0.049 L 42.573 0.19 A 3.581 3.581 0 0 1 42.74 0.872 A 4.765 4.765 0 0 1 42.788 1.47 L 42.72 2.251 L 42.788 2.466 L 42.788 2.607 L 42.861 2.607 L 42.788 2.681 L 42.646 3.677 L 42.646 3.892 L 42.72 3.892 L 42.646 4.106 L 42.788 4.6 L 42.72 4.814 L 42.788 6.162 L 42.646 6.377 L 41.577 6.733 A 2.46 2.46 0 0 1 40.747 6.356 A 2.936 2.936 0 0 1 40.586 6.235 A 4.85 4.85 0 0 1 40.307 5.617 A 6.097 6.097 0 0 1 40.161 5.171 A 6.349 6.349 0 0 1 39.836 4.718 A 8.137 8.137 0 0 1 39.59 4.316 L 39.092 3.32 L 39.375 2.324 L 39.448 1.899 L 39.019 1.899 L 39.307 2.114 L 38.95 3.032 L 38.809 3.247 L 39.019 4.175 L 39.165 6.309 L 38.809 6.587 L 37.603 6.733 A 1.605 1.605 0 0 1 37.268 6.173 A 2.174 2.174 0 0 1 37.173 5.806 L 37.246 5.024 L 37.173 4.531 L 37.246 3.892 L 37.1 2.607 L 37.173 2.183 L 37.246 1.968 A 7.467 7.467 0 0 0 37.181 1.449 Q 37.125 1.095 37.031 0.688 A 1.532 1.532 0 0 1 37.642 0.127 A 1.95 1.95 0 0 1 37.812 0.049 Z M 27.466 0.459 L 27.817 0.107 L 29.019 0.181 A 2.445 2.445 0 0 1 29.31 0.565 A 3.312 3.312 0 0 1 29.517 0.957 L 29.302 2.085 L 29.302 2.51 A 0.655 0.655 0 0 0 29.658 2.231 L 30.786 0.674 A 2.797 2.797 0 0 1 31.486 0.318 A 3.315 3.315 0 0 1 31.709 0.249 L 32.769 0.181 A 0.785 0.785 0 0 1 33.366 0.544 A 1.175 1.175 0 0 1 33.472 0.747 L 32.769 1.309 L 32.129 2.017 L 31.284 2.51 A 2.336 2.336 0 0 0 31.543 2.895 A 3.003 3.003 0 0 0 31.777 3.149 Q 31.938 3.589 32.202 4.067 A 2.5 2.5 0 0 1 32.51 4.527 A 3.059 3.059 0 0 1 32.627 4.775 L 33.545 6.045 L 33.403 6.396 A 2.889 2.889 0 0 1 32.802 6.559 A 3.86 3.86 0 0 1 32.271 6.606 A 1.723 1.723 0 0 1 31.588 6.432 A 2.267 2.267 0 0 1 31.284 6.255 L 30.786 5.479 L 30.225 3.994 Q 30.015 4.033 29.868 4.209 L 29.302 4.912 L 29.585 5.83 A 2.722 2.722 0 0 1 29.31 6.27 A 3.626 3.626 0 0 1 29.019 6.606 L 28.74 6.68 L 28.032 6.606 L 27.534 6.328 L 27.466 5.83 L 27.534 5.693 L 27.607 4.985 L 27.534 4.775 L 27.466 3.428 L 27.534 2.158 L 27.466 1.24 L 27.534 1.025 L 27.466 0.459 Z M 22.847 0.278 L 23.813 0 L 24.854 0.278 Q 25.313 0.435 25.82 0.693 A 4.26 4.26 0 0 1 26.504 1.302 A 4.652 4.652 0 0 1 26.514 1.313 A 3.062 3.062 0 0 1 26.18 1.942 A 3.627 3.627 0 0 1 26.03 2.144 A 3.686 3.686 0 0 1 25.187 2.341 A 4.17 4.17 0 0 1 25.059 2.354 L 24.229 1.865 L 23.467 1.797 L 23.188 1.938 A 0.633 0.633 0 0 0 23.529 2.404 A 1.056 1.056 0 0 0 23.745 2.49 L 24.854 2.695 A 4.553 4.553 0 0 1 25.582 2.906 A 5.197 5.197 0 0 1 25.752 2.974 A 3.277 3.277 0 0 1 26.406 3.553 A 3.65 3.65 0 0 1 26.445 3.599 A 2.988 2.988 0 0 1 26.602 4.186 A 3.948 3.948 0 0 1 26.65 4.702 L 26.304 5.674 L 25.61 6.294 A 4.303 4.303 0 0 1 25.057 6.473 A 5.521 5.521 0 0 1 24.575 6.572 L 23.535 6.777 Q 23.047 6.763 22.432 6.572 A 3.121 3.121 0 0 1 21.739 6.189 A 3.597 3.597 0 0 1 21.602 6.084 Q 21.265 5.811 20.908 5.396 A 1.178 1.178 0 0 1 21.307 4.937 A 1.677 1.677 0 0 1 21.602 4.775 Q 21.924 4.463 22.432 4.424 A 5.551 5.551 0 0 0 22.859 4.718 A 6.945 6.945 0 0 0 23.188 4.912 L 23.535 5.049 L 24.297 4.98 A 1.192 1.192 0 0 0 24.672 4.804 A 1.375 1.375 0 0 0 24.712 4.775 Q 24.712 4.556 24.516 4.364 A 0.971 0.971 0 0 0 24.507 4.355 L 23.535 4.287 L 23.33 4.219 L 22.29 4.082 L 21.602 3.457 A 4.544 4.544 0 0 1 21.306 2.683 A 5.179 5.179 0 0 1 21.255 2.49 L 21.392 1.455 L 21.948 0.762 A 4.575 4.575 0 0 1 22.514 0.43 A 5.542 5.542 0 0 1 22.847 0.278 Z M 6.514 0.454 L 7.217 0.034 A 5.987 5.987 0 0 1 7.688 0.116 A 8.187 8.187 0 0 1 8.203 0.244 L 8.555 0.522 L 8.418 3.062 L 8.486 4.189 A 1.99 1.99 0 0 0 8.6 4.556 A 2.748 2.748 0 0 0 8.77 4.893 L 9.473 5.034 L 9.688 4.961 A 1.761 1.761 0 0 0 9.916 4.565 A 2.418 2.418 0 0 0 10.039 4.189 L 9.966 3.13 L 10.039 2.358 L 9.966 2.075 L 10.039 1.162 L 9.897 0.664 L 9.966 0.522 L 10.107 0.313 L 10.952 0.034 A 4.284 4.284 0 0 1 11.482 0.12 A 5.635 5.635 0 0 1 11.938 0.244 L 12.012 0.522 L 11.938 1.304 L 11.729 1.514 A 1.739 1.739 0 0 1 11.815 1.774 Q 11.851 1.914 11.87 2.075 L 11.797 3.13 L 11.938 3.838 L 11.87 4.116 A 5.046 5.046 0 0 1 11.813 4.726 A 6.371 6.371 0 0 1 11.729 5.171 A 3.492 3.492 0 0 1 11.309 5.811 L 10.669 6.372 L 9.756 6.65 L 9.404 6.577 L 9.121 6.724 L 8.906 6.65 L 7.925 6.514 L 7.285 5.952 A 4.274 4.274 0 0 1 6.911 5.553 A 5.169 5.169 0 0 1 6.724 5.312 L 6.514 3.555 L 6.514 2.358 L 6.582 1.582 A 7.01 7.01 0 0 1 6.532 1.069 Q 6.514 0.779 6.514 0.454 Z M 12.407 0.088 L 13.267 0.229 L 13.843 0.156 L 14.058 0.229 L 14.556 0.732 L 14.912 1.299 L 15.2 2.017 Q 15.415 1.992 15.557 1.802 A 1.626 1.626 0 0 1 15.782 1.393 A 2.007 2.007 0 0 1 15.918 1.23 A 2.089 2.089 0 0 1 16.189 0.605 A 2.35 2.35 0 0 1 16.201 0.586 L 16.846 0.229 L 17.847 0.229 L 18.423 0.654 Q 18.296 0.962 18.062 1.23 L 16.489 3.447 Q 16.304 3.687 16.274 4.019 L 16.201 4.663 L 16.274 4.878 L 16.274 5.811 Q 16.265 6.138 16.133 6.455 A 3.149 3.149 0 0 1 15.473 6.644 A 3.593 3.593 0 0 1 15.342 6.665 L 14.771 6.738 L 14.556 6.592 A 1.638 1.638 0 0 1 14.35 6.069 A 1.869 1.869 0 0 1 14.341 6.025 L 14.272 4.165 L 14.341 3.735 L 14.199 3.447 L 13.696 2.944 L 12.124 0.732 Q 12.217 0.396 12.407 0.088 Z M 0 0.439 L 0.356 0.156 L 3.687 0.225 Q 4.302 0.322 4.893 0.723 A 1.982 1.982 0 0 1 5.276 1.586 A 2.575 2.575 0 0 1 5.317 1.929 L 5.386 2.568 L 4.819 2.993 L 5.317 3.628 Q 5.552 4.17 5.674 4.834 A 3.694 3.694 0 0 1 5.337 5.671 A 4.521 4.521 0 0 1 5.107 6.045 Q 4.655 6.345 4.014 6.571 A 7.192 7.192 0 0 1 3.896 6.611 L 3.403 6.68 L 3.262 6.611 L 1.348 6.68 L 1.133 6.611 L 0.923 6.611 L 0.923 6.68 A 1.485 1.485 0 0 1 0.03 5.894 A 1.946 1.946 0 0 1 0 5.83 L 0.142 4.341 L 0.068 3.628 L 0.142 2.852 L 0 0.439 Z M 34.292 0.303 L 35.22 0.02 A 5.856 5.856 0 0 1 36.147 0.376 L 36.221 1.45 L 36.074 2.095 L 36.221 2.378 L 36.074 4.307 L 36.221 4.736 L 36.147 5.239 L 36.147 5.381 L 36.221 5.381 L 36.147 5.454 L 36.289 6.24 L 36.147 6.455 Q 35.762 6.714 35.22 6.738 A 2.766 2.766 0 0 1 34.529 6.508 A 3.317 3.317 0 0 1 34.292 6.382 L 34.214 5.737 L 34.292 5.239 L 34.146 5.024 A 1.492 1.492 0 0 0 34.265 4.652 A 1.863 1.863 0 0 0 34.292 4.448 L 34.36 3.447 L 34.292 2.52 L 34.36 2.31 L 34.214 0.518 L 34.292 0.303 Z M 2.412 4.131 L 1.914 3.984 A 2.732 2.732 0 0 0 2.016 4.71 A 3.364 3.364 0 0 0 2.129 5.049 A 7.456 7.456 0 0 0 2.703 4.988 Q 3.094 4.933 3.545 4.834 L 3.687 4.199 L 3.193 3.984 L 2.412 4.131 Z M 2.271 1.787 L 2.056 1.646 L 1.914 2.354 L 1.982 2.637 L 2.197 2.637 A 7.829 7.829 0 0 1 2.81 2.541 A 9.887 9.887 0 0 1 3.33 2.495 L 3.618 2.002 L 3.193 1.787 L 2.837 1.86 L 2.627 1.787 L 2.271 1.787 Z M 24.99 4.15 L 25.405 4.219 L 25.474 4.082 L 25.332 4.014 L 25.127 3.804 L 25.059 4.082 A 2.093 2.093 0 0 1 24.826 3.843 A 2.799 2.799 0 0 1 24.644 3.599 A 0.905 0.905 0 0 0 24.877 4.044 A 1.2 1.2 0 0 0 24.99 4.15 Z M 38.169 0.903 Q 38.403 1.313 38.877 1.685 A 0.902 0.902 0 0 0 38.685 1.23 Q 38.506 1.011 38.169 0.903 Z M 22.637 2.422 L 22.5 2.217 A 2.617 2.617 0 0 0 22.16 3.014 A 2.946 2.946 0 0 0 22.153 3.042 L 22.432 3.042 L 22.637 2.422 Z M 24.434 0.967 L 24.644 1.519 L 25.127 1.382 A 2.113 2.113 0 0 0 24.652 1.063 A 2.558 2.558 0 0 0 24.434 0.967 Z M 1.914 3.56 L 1.416 3.062 L 1.489 3.701 L 1.914 3.56 Z M 11.235 3.413 L 10.952 2.988 L 10.811 3.696 A 0.149 0.149 0 0 0 10.901 3.645 Q 10.92 3.623 10.936 3.592 A 0.389 0.389 0 0 0 10.952 3.555 L 11.235 3.413 Z M 40.586 3.75 L 40.015 3.75 A 2.977 2.977 0 0 0 40.275 3.966 Q 40.416 4.071 40.583 4.173 A 5.699 5.699 0 0 0 40.586 4.175 L 40.654 3.892 L 40.586 3.75 Z M 31.211 4.634 A 3.327 3.327 0 0 0 31.778 4.912 A 3.902 3.902 0 0 0 31.987 4.985 A 3.327 3.327 0 0 0 31.421 4.707 A 3.902 3.902 0 0 0 31.211 4.634 Z M 30.366 3.149 L 30.933 3.569 Q 30.867 3.169 30.4 3.15 A 1.146 1.146 0 0 0 30.366 3.149 Z M 4.678 4.976 L 4.043 5.122 L 4.326 5.264 A 0.538 0.538 0 0 0 4.504 5.19 A 0.47 0.47 0 0 0 4.678 4.976 Z M 7.573 2.075 L 7.358 1.865 L 7.217 2.285 L 7.432 2.427 L 7.573 2.075 Z M 14.556 2.52 L 14.487 2.09 L 14.126 2.446 L 14.556 2.52 Z M 28.242 4.136 L 28.809 4.487 A 2.177 2.177 0 0 0 28.447 4.238 A 2.666 2.666 0 0 0 28.242 4.136 Z M 31.563 1.099 L 31.494 1.099 L 31.284 1.382 L 31.494 1.592 L 31.563 1.24 L 31.563 1.099 Z M 3.403 3.276 L 3.262 3.56 L 3.687 3.628 A 0.509 0.509 0 0 0 3.438 3.295 A 0.643 0.643 0 0 0 3.403 3.276 Z M 35.22 5.454 L 35.005 5.381 L 34.932 5.737 L 35.146 5.811 L 35.22 5.454 Z M 29.16 3.501 L 28.809 3.779 L 29.019 3.926 A 0.771 0.771 0 0 0 29.16 3.503 A 0.861 0.861 0 0 0 29.16 3.501 Z M 41.65 1.401 L 41.436 1.333 L 41.367 1.685 L 41.509 1.611 L 41.577 1.685 L 41.65 1.401 Z M 28.452 1.025 Q 28.628 1.26 28.882 1.382 A 2.066 2.066 0 0 0 28.646 1.164 A 2.627 2.627 0 0 0 28.452 1.025 Z M 0.991 5.474 L 0.923 5.757 Q 1.061 5.871 1.129 5.897 A 0.177 0.177 0 0 0 1.133 5.898 L 1.206 5.615 Q 1.066 5.499 0.992 5.474 A 0.184 0.184 0 0 0 0.991 5.474 Z M 41.299 4.741 L 41.011 4.673 L 40.869 4.956 L 41.299 4.741 Z M 22.773 1.66 L 22.637 1.382 L 22.363 1.592 L 22.773 1.66 Z M 23.535 5.947 L 23.052 5.947 Q 23.065 6.03 23.163 6.074 A 0.368 0.368 0 0 0 23.188 6.084 L 23.535 5.947 Z M 1.206 4.907 L 0.85 4.766 L 0.85 5.049 L 1.206 4.907 Z M 22.227 5.259 L 22.153 5.396 L 22.227 5.601 A 0.867 0.867 0 0 0 22.338 5.51 Q 22.391 5.459 22.444 5.394 A 1.747 1.747 0 0 0 22.5 5.322 L 22.227 5.259 Z M 4.043 1.646 L 4.326 2.07 A 0.591 0.591 0 0 0 4.143 1.727 A 0.839 0.839 0 0 0 4.043 1.646 Z M 0.85 2.354 A 0.863 0.863 0 0 0 1.038 2.491 A 0.693 0.693 0 0 0 1.279 2.568 A 0.83 0.83 0 0 0 0.966 2.385 A 1.047 1.047 0 0 0 0.85 2.354 Z M 15.771 3.091 L 15.557 3.521 A 0.603 0.603 0 0 0 15.767 3.133 A 0.799 0.799 0 0 0 15.771 3.091 Z M 23.95 3.115 L 23.745 3.042 L 23.608 3.252 L 23.887 3.32 L 23.95 3.115 Z M 4.326 4.053 L 4.609 3.916 A 0.343 0.343 0 0 0 4.56 3.795 A 0.316 0.316 0 0 0 4.463 3.701 A 0.497 0.497 0 0 0 4.326 4.053 Z M 28.384 4.634 L 28.174 5.054 A 0.513 0.513 0 0 0 28.38 4.685 A 0.7 0.7 0 0 0 28.384 4.634 Z M 24.854 5.396 A 0.535 0.535 0 0 0 25.031 5.786 A 0.73 0.73 0 0 0 25.059 5.811 A 0.895 0.895 0 0 0 24.951 5.536 A 1.166 1.166 0 0 0 24.854 5.396 Z M 38.096 4.316 L 37.744 4.316 L 38.027 4.531 L 38.096 4.316 Z M 14.771 3.159 A 1.189 1.189 0 0 0 14.951 3.33 A 1.577 1.577 0 0 0 15.127 3.447 A 0.767 0.767 0 0 0 14.918 3.242 A 1.023 1.023 0 0 0 14.771 3.159 Z M 7.642 3.628 L 7.573 3.555 L 7.432 3.838 L 7.642 3.906 L 7.642 3.628 Z M 16.274 2.231 L 16.201 2.158 L 16.274 2.588 L 16.274 2.231 Z M 39.092 2.041 L 38.809 2.041 L 38.809 2.251 L 38.877 2.251 L 39.092 2.041 Z M 16.631 1.514 A 0.571 0.571 0 0 0 16.768 1.798 A 0.768 0.768 0 0 0 16.846 1.875 A 1.056 1.056 0 0 0 16.773 1.722 Q 16.731 1.647 16.673 1.568 A 1.962 1.962 0 0 0 16.631 1.514 Z M 41.865 5.596 A 0.892 0.892 0 0 0 41.599 5.732 A 1.101 1.101 0 0 0 41.509 5.806 A 0.538 0.538 0 0 0 41.671 5.765 A 0.43 0.43 0 0 0 41.865 5.596 Z M 29.448 3.218 A 0.439 0.439 0 0 0 29.642 3.38 Q 29.708 3.41 29.789 3.426 A 0.839 0.839 0 0 0 29.8 3.428 A 0.589 0.589 0 0 0 29.554 3.251 A 0.781 0.781 0 0 0 29.448 3.218 Z M 41.011 5.098 A 0.43 0.43 0 0 0 41.147 5.288 Q 41.202 5.333 41.276 5.37 A 0.852 0.852 0 0 0 41.299 5.381 Q 41.215 5.254 41.061 5.135 A 1.666 1.666 0 0 0 41.011 5.098 Z M 25.547 3.525 A 0.524 0.524 0 0 0 25.689 3.813 A 0.705 0.705 0 0 0 25.752 3.872 Q 25.703 3.682 25.547 3.525 Z M 1.704 1.289 L 1.489 1.221 L 1.489 1.504 L 1.704 1.289 Z M 15.127 4.092 L 14.985 4.448 A 0.608 0.608 0 0 0 15.091 4.273 A 0.539 0.539 0 0 0 15.127 4.092 Z M 42.007 3.604 L 41.65 3.462 Q 41.807 3.589 42.007 3.604 Z M 15.127 5.024 A 0.391 0.391 0 0 0 15.264 5.253 A 0.57 0.57 0 0 0 15.342 5.308 A 0.347 0.347 0 0 0 15.207 5.077 A 0.535 0.535 0 0 0 15.127 5.024 Z M 38.452 5.313 L 38.169 5.098 A 0.426 0.426 0 0 0 38.275 5.231 A 0.402 0.402 0 0 0 38.452 5.313 Z M 38.311 3.247 L 38.027 3.032 A 0.497 0.497 0 0 0 38.303 3.245 A 0.628 0.628 0 0 0 38.311 3.247 Z M 23.745 0.967 L 23.535 1.245 A 0.379 0.379 0 0 0 23.643 1.182 Q 23.728 1.108 23.743 0.988 A 0.408 0.408 0 0 0 23.745 0.967 Z M 4.678 4.409 L 4.463 4.409 Q 4.468 4.556 4.609 4.624 L 4.678 4.409 Z M 35.43 0.806 L 35.22 0.806 L 35.361 1.021 L 35.43 0.806 Z M 1.133 1.289 L 0.923 1.221 L 0.923 1.436 L 1.133 1.289 Z M 28.882 2.861 A 0.421 0.421 0 0 0 28.898 2.981 A 0.31 0.31 0 0 0 29.019 3.149 A 0.361 0.361 0 0 0 28.902 2.88 A 0.478 0.478 0 0 0 28.882 2.861 Z M 35.22 4.521 L 34.932 4.38 A 0.327 0.327 0 0 0 35.169 4.519 A 0.444 0.444 0 0 0 35.22 4.521 Z M 41.436 2.822 L 41.577 3.11 A 0.515 0.515 0 0 0 41.436 2.822 Z M 28.315 2.725 A 0.347 0.347 0 0 0 28.502 2.924 A 0.472 0.472 0 0 0 28.525 2.935 A 0.383 0.383 0 0 0 28.343 2.738 A 0.503 0.503 0 0 0 28.315 2.725 Z M 0.923 1.572 L 0.781 1.572 L 0.85 1.787 L 0.923 1.572 Z M 35.073 1.377 A 0.234 0.234 0 0 0 35.143 1.469 Q 35.185 1.502 35.245 1.513 A 0.34 0.34 0 0 0 35.288 1.519 A 0.258 0.258 0 0 0 35.197 1.426 Q 35.16 1.404 35.112 1.388 A 0.553 0.553 0 0 0 35.073 1.377 Z M 42.29 2.539 L 42.08 2.466 Q 42.1 2.563 42.217 2.607 L 42.29 2.539 Z M 13.77 1.23 L 13.984 1.377 A 0.265 0.265 0 0 0 13.882 1.275 Q 13.834 1.247 13.77 1.23 Z M 16.846 1.299 L 16.777 1.445 L 16.919 1.445 L 16.919 1.299 L 16.846 1.299 Z M 37.813 1.685 L 38.027 1.826 A 0.328 0.328 0 0 0 37.926 1.733 Q 37.877 1.704 37.813 1.685 Z M 35.361 1.089 L 35.288 1.089 L 35.361 1.304 L 35.361 1.089 Z M 22.773 1.04 L 22.568 0.967 Q 22.588 1.06 22.705 1.104 L 22.773 1.04 Z M 41.084 3.75 L 40.942 3.96 A 0.293 0.293 0 0 0 41.046 3.849 Q 41.068 3.808 41.082 3.757 A 0.548 0.548 0 0 0 41.084 3.75 Z M 10.879 3.765 L 10.811 3.765 L 10.879 3.979 L 10.879 3.765 Z M 25.405 4.839 L 25.474 4.775 L 25.269 4.702 A 0.169 0.169 0 0 0 25.3 4.757 Q 25.336 4.8 25.405 4.839 Z M 28.384 3.643 L 28.594 3.779 A 0.233 0.233 0 0 0 28.516 3.697 Q 28.483 3.676 28.44 3.66 A 0.546 0.546 0 0 0 28.384 3.643 Z M 25.195 5.396 L 25.059 5.186 A 0.359 0.359 0 0 0 25.103 5.3 A 0.315 0.315 0 0 0 25.195 5.396 Z M 8.066 5.103 L 7.993 5.103 L 8.066 5.313 L 8.066 5.103 Z M 10.811 1.655 L 10.742 1.655 L 10.811 1.865 L 10.811 1.655 Z M 1.133 4.199 A 0.145 0.145 0 0 0 1.182 4.286 Q 1.218 4.318 1.279 4.341 A 0.161 0.161 0 0 0 1.25 4.29 Q 1.218 4.25 1.156 4.213 A 0.691 0.691 0 0 0 1.133 4.199 Z M 11.139 1.57 A 0.406 0.406 0 0 0 11.167 1.582 A 0.156 0.156 0 0 0 11.141 1.538 Q 11.103 1.49 11.021 1.44 Q 11.042 1.522 11.139 1.57 Z M 8.696 5.737 A 0.183 0.183 0 0 0 8.76 5.834 Q 8.786 5.855 8.821 5.871 A 0.397 0.397 0 0 0 8.838 5.879 A 0.149 0.149 0 0 0 8.786 5.789 Q 8.764 5.77 8.734 5.754 A 0.389 0.389 0 0 0 8.696 5.737 Z M 7.783 4.819 A 0.167 0.167 0 0 0 7.854 4.925 Q 7.88 4.943 7.914 4.957 A 0.379 0.379 0 0 0 7.925 4.961 A 0.163 0.163 0 0 0 7.899 4.916 Q 7.869 4.878 7.814 4.839 A 0.75 0.75 0 0 0 7.783 4.819 Z M 7.573 4.258 A 0.168 0.168 0 0 0 7.603 4.31 Q 7.64 4.356 7.715 4.399 A 0.165 0.165 0 0 0 7.658 4.307 Q 7.625 4.278 7.573 4.258 Z M 22.847 0.83 Q 22.866 0.923 22.983 0.967 Q 22.97 0.884 22.872 0.84 A 0.368 0.368 0 0 0 22.847 0.83 Z M 24.023 5.947 Q 24.048 6.016 24.16 6.084 Q 24.141 5.991 24.023 5.947 Z M 13.696 1.016 L 13.77 1.162 L 13.77 1.016 L 13.696 1.016 Z M 35.22 4.092 L 35.288 4.238 L 35.288 4.092 L 35.22 4.092 Z M 1.206 1.006 L 1.279 1.147 L 1.279 1.006 L 1.206 1.006 Z M 38.452 1.758 L 38.525 1.899 L 38.525 1.758 L 38.452 1.758 Z M 14.844 2.52 L 14.912 2.661 L 14.912 2.52 L 14.844 2.52 Z M 30.225 2.935 L 30.293 3.076 L 30.293 2.935 L 30.225 2.935 Z M 32.485 5.552 L 32.554 5.693 L 32.554 5.552 L 32.485 5.552 Z M 38.311 3.892 L 38.384 4.028 L 38.384 3.892 L 38.311 3.892 Z M 23.887 5.737 L 23.95 5.879 L 23.95 5.737 L 23.887 5.737 Z M 22.705 5.464 L 22.773 5.601 L 22.773 5.464 L 22.705 5.464 Z" vector-effect="non-scaling-stroke"/></g></svg>